<svg width="14" height="12" viewBox="0 0 14 12" fill="none" xmlns="http://www.w3.org/2000/svg">
<path d="M4.7563 11.0913V10.008H13.5832V11.0913H4.7563ZM4.7563 6.84133V5.75799H13.5832V6.84133H4.7563ZM4.7563 2.59133V1.50799H13.5832V2.59133H4.7563ZM1.63171 11.7692C1.29505 11.7692 1.00838 11.6494 0.771712 11.4097C0.534907 11.1699 0.416504 10.8818 0.416504 10.5453C0.416504 10.2086 0.536365 9.92195 0.776087 9.68529C1.01581 9.44848 1.30393 9.33008 1.64046 9.33008C1.97713 9.33008 2.2638 9.44994 2.50046 9.68966C2.73727 9.92938 2.85567 10.2175 2.85567 10.554C2.85567 10.8907 2.73581 11.1774 2.49609 11.414C2.25637 11.6508 1.96824 11.7692 1.63171 11.7692ZM1.63171 7.51924C1.29505 7.51924 1.00838 7.39938 0.771712 7.15966C0.534907 6.91994 0.416504 6.63181 0.416504 6.29529C0.416504 5.95862 0.536365 5.67195 0.776087 5.43529C1.01581 5.19848 1.30393 5.08008 1.64046 5.08008C1.97713 5.08008 2.2638 5.19994 2.50046 5.43966C2.73727 5.67938 2.85567 5.96751 2.85567 6.30404C2.85567 6.6407 2.73581 6.92737 2.49609 7.16404C2.25637 7.40084 1.96824 7.51924 1.63171 7.51924ZM1.63171 3.26924C1.29505 3.26924 1.00838 3.14938 0.771712 2.90966C0.534907 2.66994 0.416504 2.38181 0.416504 2.04529C0.416504 1.70862 0.536365 1.42195 0.776087 1.18529C1.01581 0.948481 1.30393 0.830078 1.64046 0.830078C1.97713 0.830078 2.2638 0.949938 2.50046 1.18966C2.73727 1.42938 2.85567 1.71751 2.85567 2.05404C2.85567 2.3907 2.73581 2.67737 2.49609 2.91404C2.25637 3.15084 1.96824 3.26924 1.63171 3.26924Z" fill="#434343"/>
</svg>
